<svg xmlns="http://www.w3.org/2000/svg" viewBox="0 0 110.04 110.02">
  <path class="sun" d="M55,27.07C38.78,27.07,28.77,39,28.77,55S38.78,83,55,83,81.26,71,81.26,55,71.11,27.07,55,27.07Zm0,49.4c-12.17,0-18.72-9.22-18.72-21.46S42.81,33.41,55,33.41,73.63,42.7,73.63,55,67.15,76.47,55,76.47Z"/>
  <polygon class="sun" points="110.03 51.98 110.03 51.98 90.02 51.98 90.02 58.03 90.02 58.03 90.02 58.03 110.03 58.03 110.03 51.98 110.03 51.98"/>
  <rect class="sun" x="75.72" y="21.27" width="20.02" height="6.05" transform="translate(7.93 67.74) rotate(-45)"/>
  <rect class="sun" x="51.99" width="6.05" height="20.02"/>
  <polygon class="sun" points="20.02 58.03 20.02 51.98 20.02 51.98 0 51.98 0 51.98 0 58.03 0 58.03 20.02 58.03 20.02 58.03"/>
  <rect class="sun" x="21.28" y="14.28" width="6.05" height="20.02" transform="translate(-10.06 24.3) rotate(-45)"/>
  <rect class="sun" x="14.29" y="82.7" width="20.02" height="6.05" transform="translate(-53.5 42.29) rotate(-45)"/>
  <polygon class="sun" points="51.99 90 51.99 90 51.99 110.02 51.99 110.02 58.04 110.02 58.04 110.02 58.04 90 58.04 90 51.99 90"/>
  <rect class="sun" x="82.71" y="75.72" width="6.05" height="20.02" transform="translate(-35.51 85.73) rotate(-45)"/>
  <path class="moon" d="M28.77,55c0-16.06,10-27.94,26.21-27.94S81.26,39,81.26,55,71.11,83,55,83,28.77,71,28.77,55Z"/>
</svg>